<svg xmlns="http://www.w3.org/2000/svg" width="1600" height="1067" viewBox="0 0 1600 1067">
  <defs>
    <linearGradient id="stage" x1="50%" y1="0%" x2="50%" y2="100%">
      <stop offset="0%" stop-color="#f7ede0"/>
      <stop offset="100%" stop-color="#e0d5c4"/>
    </linearGradient>
    <linearGradient id="curtain" x1="0%" y1="0%" x2="0%" y2="100%">
      <stop offset="0%" stop-color="#bcd1c3"/>
      <stop offset="100%" stop-color="#7C9885"/>
    </linearGradient>
  </defs>
  <rect width="1600" height="1067" fill="url(#stage)"/>
  <rect x="140" y="80" width="1320" height="240" rx="48" fill="#ffffff" opacity="0.95"/>
  <rect x="140" y="360" width="1320" height="540" rx="48" fill="#ffffff" opacity="0.95"/>
  <g fill="url(#curtain)">
    <rect x="160" y="100" width="160" height="200" rx="28"/>
    <rect x="380" y="100" width="160" height="200" rx="28"/>
    <rect x="600" y="100" width="160" height="200" rx="28"/>
    <rect x="820" y="100" width="160" height="200" rx="28"/>
    <rect x="1040" y="100" width="160" height="200" rx="28"/>
    <rect x="1260" y="100" width="160" height="200" rx="28"/>
  </g>
  <g transform="translate(200 400)">
    <g fill="#f0e0cb" opacity="0.8">
      <rect x="0" y="320" width="1200" height="160" rx="48"/>
      <rect x="80" y="240" width="1040" height="160" rx="48"/>
    </g>
    <g fill="#9CAF88" opacity="0.9">
      <circle cx="120" cy="160" r="80"/>
      <circle cx="280" cy="160" r="80"/>
      <circle cx="440" cy="160" r="80"/>
      <circle cx="600" cy="160" r="80"/>
      <circle cx="760" cy="160" r="80"/>
      <circle cx="920" cy="160" r="80"/>
      <circle cx="1080" cy="160" r="80"/>
    </g>
    <g fill="#7C9885">
      <rect x="60" y="220" width="120" height="220" rx="40"/>
      <rect x="220" y="220" width="120" height="220" rx="40"/>
      <rect x="380" y="220" width="120" height="220" rx="40"/>
      <rect x="540" y="220" width="120" height="220" rx="40"/>
      <rect x="700" y="220" width="120" height="220" rx="40"/>
      <rect x="860" y="220" width="120" height="220" rx="40"/>
      <rect x="1020" y="220" width="120" height="220" rx="40"/>
    </g>
    <g fill="#5A6B5B" opacity="0.18">
      <ellipse cx="120" cy="460" rx="110" ry="28"/>
      <ellipse cx="280" cy="460" rx="110" ry="28"/>
      <ellipse cx="440" cy="460" rx="110" ry="28"/>
      <ellipse cx="600" cy="460" rx="110" ry="28"/>
      <ellipse cx="760" cy="460" rx="110" ry="28"/>
      <ellipse cx="920" cy="460" rx="110" ry="28"/>
      <ellipse cx="1080" cy="460" rx="110" ry="28"/>
    </g>
  </g>
  <text x="240" y="980" font-family="'Playfair Display', serif" font-size="72" fill="#7C9885">Heart-led community in Southampton</text>
</svg>
