<svg xmlns="http://www.w3.org/2000/svg" width="1600" height="1067" viewBox="0 0 1600 1067">
  <defs>
    <linearGradient id="bg" x1="0%" y1="0%" x2="100%" y2="100%">
      <stop offset="0%" stop-color="#f6f1e9"/>
      <stop offset="100%" stop-color="#dfe9e3"/>
    </linearGradient>
    <filter id="shadow" x="-10%" y="-10%" width="120%" height="120%">
      <feDropShadow dx="0" dy="12" stdDeviation="20" flood-color="rgba(124,152,133,0.35)"/>
    </filter>
  </defs>
  <rect width="1600" height="1067" fill="url(#bg)" rx="48"/>
  <g filter="url(#shadow)">
    <rect x="180" y="180" width="1240" height="707" rx="64" fill="#ffffff" opacity="0.95"/>
  </g>
  <g font-family="'Poppins', sans-serif" fill="#2C3E2E">
    <text x="220" y="290" font-size="54" font-weight="600">Open Heart, Grounded Mind</text>
    <text x="220" y="360" font-size="32" fill="#5A6B5B">Restorative heart-opening practice</text>
  </g>
  <g transform="translate(220 400)">
    <rect width="380" height="520" rx="36" fill="#f3ede4"/>
    <path d="M60 120c0-58 48-106 107-106s107 48 107 106-48 106-107 106S60 178 60 120z" fill="#c8d9cf" opacity="0.85"/>
    <rect x="80" y="200" width="220" height="210" rx="28" fill="#9CAF88" opacity="0.75"/>
    <rect x="150" y="240" width="80" height="150" rx="18" fill="#7C9885"/>
    <circle cx="190" cy="380" r="48" fill="#e0bfa5" opacity="0.72"/>
    <path d="M120 430h220c22 0 40 18 40 40v30H80v-30c0-22 18-40 40-40z" fill="#2C3E2E" opacity="0.1"/>
  </g>
  <g transform="translate(660 400)">
    <rect width="700" height="520" rx="36" fill="#f9f6f1"/>
    <path d="M140 80c40-54 116-72 170-40 72 44 180 42 244-4 40-30 94-28 134 4 30 24 48 60 46 98-4 90-96 150-242 188-160 42-338 46-460 10-90-28-104-170-32-256z" fill="#e6d8c1"/>
    <path d="M220 200c18-52 82-78 140-54 56 22 122 18 176-10 58-30 120 12 122 76 2 58-56 112-158 142-128 38-250 40-328 18-54-16-70-110-28-172z" fill="#9CAF88" opacity="0.55"/>
    <path d="M260 360c18-32 70-48 114-36 38 10 88 6 132-12 44-16 94 8 106 48 8 32-26 64-88 88-80 30-160 32-214 16-40-10-60-60-50-104z" fill="#7C9885" opacity="0.45"/>
  </g>
  <g font-family="'Playfair Display', serif" font-size="48" fill="#7C9885" font-weight="600">
    <text x="220" y="930">Rest deeply, open gently.</text>
  </g>
</svg>
