<svg xmlns="http://www.w3.org/2000/svg" width="1600" height="1067" viewBox="0 0 1600 1067">
  <defs>
    <linearGradient id="sunrise" x1="0%" y1="0%" x2="100%" y2="0%">
      <stop offset="0%" stop-color="#fdf1d6"/>
      <stop offset="50%" stop-color="#f3d7bf"/>
      <stop offset="100%" stop-color="#e8c3b0"/>
    </linearGradient>
    <linearGradient id="floor" x1="0%" y1="0%" x2="100%" y2="0%">
      <stop offset="0%" stop-color="#e4ede6"/>
      <stop offset="100%" stop-color="#c7d8ce"/>
    </linearGradient>
  </defs>
  <rect width="1600" height="1067" fill="url(#sunrise)"/>
  <rect y="640" width="1600" height="427" fill="url(#floor)"/>
  <g fill="#ffffff" opacity="0.35">
    <circle cx="320" cy="180" r="110"/>
    <circle cx="520" cy="260" r="70"/>
    <circle cx="780" cy="160" r="90"/>
  </g>
  <g transform="translate(180 360)">
    <g fill="#7C9885">
      <rect x="0" y="280" width="240" height="28" rx="14"/>
      <rect x="260" y="240" width="220" height="28" rx="14"/>
      <rect x="500" y="260" width="220" height="28" rx="14"/>
      <rect x="740" y="240" width="220" height="28" rx="14"/>
      <rect x="980" y="280" width="220" height="28" rx="14"/>
    </g>
    <g fill="#2C3E2E">
      <path d="M70 0h40l50 220h-40z" opacity="0.1"/>
      <path d="M330 0h40l50 220h-40z" opacity="0.1"/>
      <path d="M590 0h40l50 220h-40z" opacity="0.1"/>
      <path d="M850 0h40l50 220h-40z" opacity="0.1"/>
      <path d="M1110 0h40l50 220h-40z" opacity="0.1"/>
    </g>
    <g fill="#ffffff" opacity="0.9">
      <path d="M60 220c10-90 80-180 140-180s102 72 138 160c20 44-6 92-54 100-86 14-226-14-224-80z" fill="#8fb29d"/>
      <path d="M320 220c12-94 78-180 146-180s128 86 138 170c6 44-26 92-76 100-92 16-224-10-208-90z" fill="#7C9885"/>
      <path d="M580 220c18-94 90-180 164-180s128 86 132 164c4 44-32 94-86 104-98 20-226-4-210-88z" fill="#6e8677"/>
      <path d="M840 220c18-94 92-180 166-180s124 84 134 168c6 44-30 94-86 104-100 20-228-4-214-92z" fill="#5c7366"/>
      <path d="M1100 220c22-96 96-180 168-180s122 84 132 168c6 44-28 94-82 104-104 20-232-6-218-92z" fill="#4f6359"/>
    </g>
  </g>
  <text x="160" y="960" font-family="'Playfair Display', serif" font-size="72" fill="#ffffff" opacity="0.8">Movement in community</text>
</svg>
