<svg xmlns="http://www.w3.org/2000/svg" width="1600" height="1067" viewBox="0 0 1600 1067">
  <defs>
    <linearGradient id="glow" x1="50%" y1="0%" x2="50%" y2="100%">
      <stop offset="0%" stop-color="#fff4d8"/>
      <stop offset="100%" stop-color="#f9ddb4"/>
    </linearGradient>
    <linearGradient id="walls" x1="0%" y1="0%" x2="100%" y2="0%">
      <stop offset="0%" stop-color="#f1e8dc"/>
      <stop offset="100%" stop-color="#e3d5c6"/>
    </linearGradient>
  </defs>
  <rect width="1600" height="1067" fill="url(#walls)"/>
  <circle cx="1320" cy="220" r="140" fill="url(#glow)" opacity="0.8"/>
  <g transform="translate(200 220)">
    <rect width="1200" height="640" rx="48" fill="#ffffff" opacity="0.95"/>
    <g fill="#f5e6d3" opacity="0.65">
      <rect x="80" y="80" width="160" height="160" rx="24"/>
      <rect x="320" y="80" width="160" height="160" rx="24"/>
      <rect x="560" y="80" width="160" height="160" rx="24"/>
      <rect x="800" y="80" width="160" height="160" rx="24"/>
    </g>
    <g fill="#7C9885">
      <rect x="80" y="340" width="120" height="160" rx="28"/>
      <rect x="320" y="300" width="120" height="220" rx="28"/>
      <rect x="560" y="260" width="120" height="260" rx="28"/>
      <rect x="800" y="300" width="120" height="220" rx="28"/>
      <rect x="1040" y="340" width="120" height="160" rx="28"/>
    </g>
    <g fill="#2C3E2E" opacity="0.12">
      <ellipse cx="140" cy="540" rx="140" ry="36"/>
      <ellipse cx="380" cy="540" rx="140" ry="36"/>
      <ellipse cx="620" cy="540" rx="140" ry="36"/>
      <ellipse cx="860" cy="540" rx="140" ry="36"/>
      <ellipse cx="1100" cy="540" rx="140" ry="36"/>
    </g>
  </g>
  <text x="220" y="1020" font-family="'Playfair Display', serif" font-size="64" fill="#7C9885">Reaching together for the light</text>
</svg>
